<?xml version="1.0" encoding="UTF-8" standalone="no"?>
<!-- Created with Inkscape (http://www.inkscape.org/) -->

<svg
   xmlns:dc="http://purl.org/dc/elements/1.1/"
   xmlns:cc="http://creativecommons.org/ns#"
   xmlns:rdf="http://www.w3.org/1999/02/22-rdf-syntax-ns#"
   xmlns:svg="http://www.w3.org/2000/svg"
   xmlns="http://www.w3.org/2000/svg"
   xmlns:sodipodi="http://sodipodi.sourceforge.net/DTD/sodipodi-0.dtd"
   xmlns:inkscape="http://www.inkscape.org/namespaces/inkscape"
   width="400"
   height="600"
   viewBox="0 0 105.83333 158.75"
   version="1.1"
   id="svg12115"
   inkscape:version="0.92.2 2405546, 2018-03-11"
   sodipodi:docname="bigship.svg"
   inkscape:export-filename="/home/syrn/git/Nanahuatzin/game/Sprites/ship_view.png"
   inkscape:export-xdpi="96"
   inkscape:export-ydpi="96">
  <defs
     id="defs12109" />
  <sodipodi:namedview
     id="base"
     pagecolor="#ffffff"
     bordercolor="#666666"
     borderopacity="1.0"
     inkscape:pageopacity="0.0"
     inkscape:pageshadow="2"
     inkscape:zoom="0.98994949"
     inkscape:cx="130.16546"
     inkscape:cy="437.90798"
     inkscape:document-units="mm"
     inkscape:current-layer="layer1"
     showgrid="false"
     units="px"
     inkscape:window-width="1360"
     inkscape:window-height="687"
     inkscape:window-x="0"
     inkscape:window-y="46"
     inkscape:window-maximized="0" />
  <metadata
     id="metadata12112">
    <rdf:RDF>
      <cc:Work
         rdf:about="">
        <dc:format>image/svg+xml</dc:format>
        <dc:type
           rdf:resource="http://purl.org/dc/dcmitype/StillImage" />
        <dc:title></dc:title>
      </cc:Work>
    </rdf:RDF>
  </metadata>
  <g
     inkscape:label="Layer 1"
     inkscape:groupmode="layer"
     id="layer1"
     transform="translate(0,-138.24998)">
    <g
       id="g11259"
       transform="matrix(5.5542516,0,0,5.5542516,-915.96359,-122.57428)">
      <g
         transform="scale(0.26458333)"
         id="use11257">
        <path
           style="fill:#6d4b27;stroke:none"
           inkscape:connector-curvature="0"
           id="path12679"
           d="M 677.65,184.9 Q 670.3,177.95 660,178 q -10.3,-0.05 -17.55,6.9 -6.7,6.35 -7.1,15.15 -0.1,0.7 -0.1,1.4 v 3.65 q 0,0.85 0.6,1.45 l 4.15,4.15 v 31.55 q 0.05,2.15 0.25,4.2 0.15,1.65 0.4,3.3 v 0.05 q 2.75,20.85 17,35.2 v 0.05 q 0.6,0.6 1.45,0.85 0.9,0.25 1.8,0 0.9,-0.3 1.45,-0.9 6.55,-6.65 10.7,-14.6 4.8,-9.4 6.35,-20.6 v -0.05 q 0.2,-1.65 0.35,-3.3 0.2,-2.1 0.25,-4.2 V 210.7 l 4.2,-4.15 q 0.55,-0.6 0.55,-1.45 v -3.65 q 0,-0.6 0,-1.2 0,-0.05 0,-0.1 -0.45,-8.9 -7.1,-15.25 M 660,180 q 9.5,-0.05 16.25,6.35 6.1,5.8 6.5,13.9 0,0.6 0,1.2 v 3.65 l -4.75,4.75 v 32.35 q -0.05,2.05 -0.25,4.05 -0.15,1.65 -0.35,3.25 -1.45,10.9 -6.15,19.95 -4,7.75 -10.35,14.15 -0.2,0.25 -0.55,0.35 -0.35,0.1 -0.7,0 -0.35,-0.1 -0.6,-0.35 -13.75,-13.9 -16.45,-34.1 -0.2,-1.6 -0.35,-3.25 -0.2,-2 -0.25,-4.05 v -32.35 l -4.75,-4.75 v -3.65 q 0,-0.6 0.1,-1.2 0.35,-8.1 6.45,-13.9 6.7,-6.4 16.2,-6.35 z" />
        <path
           style="fill:#b47b41;stroke:none"
           inkscape:connector-curvature="0"
           id="path12681"
           d="M 676.25,186.35 Q 669.5,179.95 660,180 q -9.5,-0.05 -16.2,6.35 -6.1,5.8 -6.45,13.9 -0.1,0.6 -0.1,1.2 v 3.65 l 4.75,4.75 v 32.35 q 0.05,2.05 0.25,4.05 0.15,1.65 0.35,3.25 2.7,20.2 16.45,34.1 0.25,0.25 0.6,0.35 0.35,0.1 0.7,0 0.35,-0.1 0.55,-0.35 6.35,-6.4 10.35,-14.15 4.7,-9.05 6.15,-19.95 0.2,-1.6 0.35,-3.25 0.2,-2 0.25,-4.05 v -32.35 l 4.75,-4.75 v -3.65 q 0,-0.6 0,-1.2 -0.4,-8.1 -6.5,-13.9 m -3.85,2.6 v -0.05 q 4.85,4.75 5.3,11.35 0,0.6 0,1.2 v 3.3 0.35 H 674 v 4.65 12 6.5 12 1.8 q -0.1,2.15 -0.25,4.2 -0.2,1.65 -0.4,3.25 -1.6,11 -6.65,19.95 -6.2,8.45 -13.35,0 -5.1,-9 -6.7,-19.95 -0.2,-1.6 -0.35,-3.25 -0.2,-2 -0.3,-4.05 v -1.95 -12 -6.5 -12 -4.65 h -3.65 v -0.35 -3.3 q 0,-0.6 0.05,-1.2 0.35,-6.6 5.3,-11.35 5.05,-4.85 12.3,-4.9 h 0.1 q 7.15,0.05 12.3,4.95 z" />
        <path
           style="fill:#a8733b;stroke:none"
           inkscape:connector-curvature="0"
           id="path12683"
           d="m 673.35,249.5 q 0.2,-1.6 0.4,-3.25 H 646.3 q 0.15,1.65 0.35,3.25 z" />
        <path
           style="fill:#8e6132;stroke:none"
           inkscape:connector-curvature="0"
           id="path12685"
           d="m 666.7,269.45 q 5.05,-8.95 6.65,-19.95 h -26.7 q 1.6,10.95 6.7,19.95 7.15,8.45 13.35,0 m -6.7,-12.5 q 1.35,0 2.3,0.95 1,1 1,2.35 0,1.35 -1,2.3 -0.95,1 -2.3,1 -1.35,0 -2.35,-1 -0.95,-0.95 -0.95,-2.3 0,-1.35 0.95,-2.35 1,-0.95 2.35,-0.95 m 17.7,-52.2 v -3.3 q 0,-0.6 0,-1.2 h -35.3 q -0.05,0.6 -0.05,1.2 v 3.3 z" />
        <path
           style="fill:#95b4b6;stroke:none"
           inkscape:connector-curvature="0"
           id="path12687"
           d="m 662.3,257.9 q -0.95,-0.95 -2.3,-0.95 -1.35,0 -2.35,0.95 -0.95,1 -0.95,2.35 0,1.35 0.95,2.3 1,1 2.35,1 1.35,0 2.3,-1 1,-0.95 1,-2.3 0,-1.35 -1,-2.35 m -3.5,1.15 q 0.5,-0.45 1.2,-0.45 0.65,0 1.15,0.45 0.5,0.5 0.5,1.2 0,0.65 -0.5,1.15 -0.5,0.5 -1.15,0.5 -0.7,0 -1.2,-0.5 -0.45,-0.5 -0.45,-1.15 0,-0.7 0.45,-1.2 m 11.8,-30.8 v 12 h 3.4 v -12 h -3.4 m -21.2,12 v -12 H 646 v 12 h 3.4 m 0,-18.5 v -12 H 646 v 12 h 3.4 m 24.6,-12 h -3.4 v 12 h 3.4 z" />
        <path
           style="fill:#7e989a;stroke:none"
           inkscape:connector-curvature="0"
           id="path12689"
           d="m 660,258.6 q -0.7,0 -1.2,0.45 -0.45,0.5 -0.45,1.2 0,0.65 0.45,1.15 0.5,0.5 1.2,0.5 0.65,0 1.15,-0.5 0.5,-0.5 0.5,-1.15 0,-0.7 -0.5,-1.2 -0.5,-0.45 -1.15,-0.45 z" />
        <path
           style="fill:#a7cacd;stroke:none"
           inkscape:connector-curvature="0"
           id="path12691"
           d="m 667.75,228.25 v 12 h 2.85 v -12 h -2.85 m -18.35,12 h 2.85 v -12 h -2.85 v 12 m 2.85,-18.5 v -12 h -2.85 v 12 h 2.85 m 18.35,0 v -12 h -2.85 v 12 z" />
        <path
           style="fill:#956635;stroke:none"
           inkscape:connector-curvature="0"
           id="path12693"
           d="m 677.7,205.1 v -0.35 h -35.35 v 0.35 H 646 v 4.65 h 3.4 2.85 v 12 H 649.4 646 v 6.5 h 3.4 2.85 v 12 H 649.4 646 v 1.95 q 0.1,2.05 0.3,4.05 h 27.45 q 0.15,-2.05 0.25,-4.2 v -1.8 h -3.4 -2.85 v -12 h 2.85 3.4 v -6.5 h -3.4 -2.85 v -12 h 2.85 3.4 v -4.65 h 3.7 m -22.6,12.15 h 9.85 v 9.85 h -9.85 z" />
        <path
           style="fill:#83592e;stroke:none"
           inkscape:connector-curvature="0"
           id="path12695"
           d="m 664.95,217.25 h -9.85 v 9.85 h 9.85 z" />
        <path
           style="fill:#a3703a;stroke:none"
           inkscape:connector-curvature="0"
           id="path12697"
           d="m 672.4,188.9 v 0.05 q -5.15,-4.9 -12.3,-4.95 H 660 q -7.25,0.05 -12.3,4.9 -4.95,4.75 -5.3,11.35 h 35.3 q -0.45,-6.6 -5.3,-11.35 z" />
      </g>
    </g>
  </g>
</svg>
