<?xml version="1.0" encoding="UTF-8" standalone="no"?>
<!-- Created with Inkscape (http://www.inkscape.org/) -->

<svg
   xmlns:dc="http://purl.org/dc/elements/1.1/"
   xmlns:cc="http://creativecommons.org/ns#"
   xmlns:rdf="http://www.w3.org/1999/02/22-rdf-syntax-ns#"
   xmlns:svg="http://www.w3.org/2000/svg"
   xmlns="http://www.w3.org/2000/svg"
   xmlns:sodipodi="http://sodipodi.sourceforge.net/DTD/sodipodi-0.dtd"
   xmlns:inkscape="http://www.inkscape.org/namespaces/inkscape"
   width="30"
   height="60"
   viewBox="0 0 7.9375 15.875"
   version="1.1"
   id="svg13449"
   inkscape:version="0.92.2 2405546, 2018-03-11"
   sodipodi:docname="smallShip.svg"
   inkscape:export-filename="/home/syrn/git/Nanahuatzin/Sprites/SmallShip.png"
   inkscape:export-xdpi="300"
   inkscape:export-ydpi="300">
  <defs
     id="defs13443" />
  <sodipodi:namedview
     id="base"
     pagecolor="#ffffff"
     bordercolor="#666666"
     borderopacity="1.0"
     inkscape:pageopacity="0.0"
     inkscape:pageshadow="2"
     inkscape:zoom="2.8"
     inkscape:cx="-92.972351"
     inkscape:cy="-35.480622"
     inkscape:document-units="mm"
     inkscape:current-layer="layer1"
     showgrid="false"
     units="px"
     inkscape:window-width="1360"
     inkscape:window-height="687"
     inkscape:window-x="0"
     inkscape:window-y="46"
     inkscape:window-maximized="0" />
  <metadata
     id="metadata13446">
    <rdf:RDF>
      <cc:Work
         rdf:about="">
        <dc:format>image/svg+xml</dc:format>
        <dc:type
           rdf:resource="http://purl.org/dc/dcmitype/StillImage" />
        <dc:title />
      </cc:Work>
    </rdf:RDF>
  </metadata>
  <g
     inkscape:label="Layer 1"
     inkscape:groupmode="layer"
     id="layer1"
     transform="translate(0,-281.12498)">
    <g
       id="g11253"
       transform="matrix(0.26458333,0,0,0.26458333,-58.149285,271.73252)">
      <g
         transform="matrix(0.68988448,0,0,0.67079404,-426.64421,-95.677234)"
         id="use11251">
        <path
           style="fill:#6d4b27;stroke:none"
           inkscape:connector-curvature="0"
           id="path13218"
           d="M 963.95,247 H 952 q -1.4,0 -2.3,1.05 -0.95,0.85 -1.05,2.25 l -0.6,11.1 q -0.05,0.7 -0.05,1.4 v 0.05 q -0.05,2.15 0.1,4.15 0.1,2.1 0.5,4 1.5,8.3 7.15,13.05 l 0.1,0.05 q 0,0.05 0.05,0.1 0.85,0.8 2.05,0.8 1.25,-0.05 2.1,-0.8 0.05,-0.05 0.1,-0.1 l 0.05,-0.05 q 5.6,-4.75 7.2,-13.05 0.35,-1.9 0.5,-4 0.15,-2 0.1,-4.15 v -0.05 q 0,-0.75 -0.05,-1.45 l -0.65,-11 q 0,-0.1 0,-0.2 -0.2,-1.15 -0.8,-1.9 -0.1,-0.1 -0.15,-0.2 -1.15,-1.1 -2.4,-1.05 m 0,2 q 0.5,0 0.95,0.45 0.3,0.4 0.4,1 l 0.65,11.05 q 0.05,0.65 0.05,1.35 0.05,2.15 -0.1,4.15 -0.2,2.1 -0.55,4 -1.55,7.4 -6.6,11.65 -0.3,0.35 -0.8,0.35 -0.45,0 -0.75,-0.35 -5.05,-4.25 -6.55,-11.65 -0.4,-1.9 -0.55,-4 -0.15,-2 -0.1,-4.15 0,-0.7 0.05,-1.35 l 0.6,-11.05 q 0.05,-0.6 0.45,-1 0.35,-0.45 0.9,-0.45 z" />
        <path
           style="fill:#b47b41;stroke:none"
           inkscape:connector-curvature="0"
           id="path13220"
           d="M 964.9,249.45 Q 964.45,249 963.95,249 H 952 q -0.55,0 -0.9,0.45 -0.4,0.4 -0.45,1 l -0.6,11.05 q -0.05,0.65 -0.05,1.35 -0.05,2.15 0.1,4.15 0.15,2.1 0.55,4 1.5,7.4 6.55,11.65 0.3,0.35 0.75,0.35 0.5,0 0.8,-0.35 5.05,-4.25 6.6,-11.65 0.35,-1.9 0.55,-4 0.15,-2 0.1,-4.15 0,-0.7 -0.05,-1.35 l -0.65,-11.05 q -0.1,-0.6 -0.4,-1 m -1.55,1.55 0.2,4 0.25,4 0.15,2.65 q 0.05,0.6 0.05,1.2 v 0.05 q 0.05,2.15 -0.1,4.1 -0.2,2.1 -0.65,4 -1.35,5.95 -5.25,9.65 -3.95,-3.7 -5.3,-9.65 -0.45,-1.9 -0.6,-4 -0.15,-1.95 -0.1,-4.1 v -0.05 q 0,-0.6 0.05,-1.2 l 0.15,-2.65 0.2,-4 0.25,-4 z" />
        <path
           style="fill:#8e6132;stroke:none"
           inkscape:connector-curvature="0"
           id="path13222"
           d="M 963.25,271 H 952.7 q 1.35,5.95 5.3,9.65 3.9,-3.7 5.25,-9.65 M 952,262.9 q -0.05,2.15 0.1,4.1 h 11.8 q 0.15,-1.95 0.1,-4.1 v -0.05 q 0,-0.6 -0.05,-1.2 L 963.8,259 h -11.6 l -0.15,2.65 q -0.05,0.6 -0.05,1.2 v 0.05 m 11.55,-7.9 -0.2,-4 h -10.7 l -0.25,4 z" />
        <path
           style="fill:#a8733b;stroke:none"
           inkscape:connector-curvature="0"
           id="path13224"
           d="m 952.1,267 q 0.15,2.1 0.6,4 h 10.55 q 0.45,-1.9 0.65,-4 h -11.8 m 11.7,-8 -0.25,-4 H 952.4 l -0.2,4 z" />
      </g>
    </g>
    <g
       id="g13358"
       transform="matrix(0.18253193,0,0,0.17748092,-141.57983,220.4311)">
      <circle
         style="opacity:1;vector-effect:none;fill:#6d4b27;fill-opacity:1;stroke:none;stroke-width:5.83398104;stroke-linecap:round;stroke-linejoin:round;stroke-miterlimit:4;stroke-dasharray:none;stroke-dashoffset:0;stroke-opacity:1"
         id="circle13348"
         cx="796.6452"
         cy="414.95569"
         r="5.4021101" />
      <circle
         r="3.7253995"
         cy="414.95569"
         cx="796.6452"
         id="path13346"
         style="opacity:1;vector-effect:none;fill:#8e6132;fill-opacity:1;stroke:none;stroke-width:4.02322626;stroke-linecap:round;stroke-linejoin:round;stroke-miterlimit:4;stroke-dasharray:none;stroke-dashoffset:0;stroke-opacity:1" />
    </g>
    <g
       id="g13344"
       transform="matrix(0.18253193,0,0,0.17748092,-141.65443,217.8798)">
      <path
         d="m 818.05287,421.42958 v -0.05 q 0.05,-1.2 -1.1,-2.15 -0.45,-0.35 -0.9,-0.55 -0.75,-0.35 -1.65,-0.35 h -34.75 q -0.85,0 -1.55,0.3 -0.5,0.2 -0.95,0.55 l -0.05,0.05 q -1.05,0.95 -1.05,2.15 v 0.05 q 0,1.2 1.05,2.15 0.05,0.05 0.15,0.1 0.95,0.65 2.1,0.75 16.7,3.85 35.35,0 1.2,-0.1 2.1,-0.75 1.3,-0.95 1.25,-2.25 m -3.2,-1.3 q 0.35,0.1 0.65,0.35 0.55,0.4 0.55,0.9 v 0.05 q 0,0.5 -0.55,0.9 -0.45,0.35 -1.1,0.35 -18.35,3.85 -34.75,0 -0.65,0 -1.15,-0.35 -0.45,-0.4 -0.45,-0.9 v -0.05 q 0,-0.5 0.45,-0.9 0.3,-0.25 0.7,-0.35 0.2,-0.05 0.45,-0.05 h 34.75 q 0.25,0 0.45,0.05 z"
         id="path13250"
         inkscape:connector-curvature="0"
         style="fill:#465556;fill-opacity:1;stroke:none" />
      <path
         d="m 814.85287,420.12958 q -0.2,-0.05 -0.45,-0.05 h -34.75 q -0.25,0 -0.45,0.05 0.2,0.05 0.45,0.05 16.4,3.85 34.75,0 0.25,0 0.45,-0.05 z"
         id="path13252"
         inkscape:connector-curvature="0"
         style="fill:#5f7374;fill-opacity:1;stroke:none" />
      <path
         d="m 815.50287,420.47958 q -0.3,-0.25 -0.65,-0.35 -0.2,0.05 -0.45,0.05 -18.35,3.85 -34.75,0 -0.25,0 -0.45,-0.05 -0.4,0.1 -0.7,0.35 -0.45,0.4 -0.45,0.9 v 0.05 q 0,0.5 0.45,0.9 0.5,0.35 1.15,0.35 16.4,3.85 34.75,0 0.65,0 1.1,-0.35 0.55,-0.4 0.55,-0.9 v -0.05 q 0,-0.5 -0.55,-0.9 z"
         id="path13254"
         inkscape:connector-curvature="0"
         style="fill:#afb5b6;fill-opacity:1;stroke:none" />
    </g>
  </g>
</svg>
