<?xml version="1.0" encoding="UTF-8" standalone="no"?>
<!-- Created with Inkscape (http://www.inkscape.org/) -->

<svg
   xmlns:dc="http://purl.org/dc/elements/1.1/"
   xmlns:cc="http://creativecommons.org/ns#"
   xmlns:rdf="http://www.w3.org/1999/02/22-rdf-syntax-ns#"
   xmlns:svg="http://www.w3.org/2000/svg"
   xmlns="http://www.w3.org/2000/svg"
   xmlns:xlink="http://www.w3.org/1999/xlink"
   xmlns:sodipodi="http://sodipodi.sourceforge.net/DTD/sodipodi-0.dtd"
   xmlns:inkscape="http://www.inkscape.org/namespaces/inkscape"
   width="1920"
   height="1080"
   viewBox="0 0 507.99999 285.75001"
   version="1.1"
   id="svg8"
   inkscape:version="0.92.2 2405546, 2018-03-11"
   sodipodi:docname="mapsvg.svg"
   inkscape:export-filename="/home/syrn/git/Nanahuatzin/game/Sprites/map.png"
   inkscape:export-xdpi="96"
   inkscape:export-ydpi="96">
  <defs
     id="defs2">
    <linearGradient
       inkscape:collect="always"
       id="linearGradient1085">
      <stop
         style="stop-color:#fde0ab;stop-opacity:1"
         offset="0"
         id="stop1081" />
      <stop
         style="stop-color:#fde0ab;stop-opacity:0.09137056"
         offset="1"
         id="stop1083" />
    </linearGradient>
    <linearGradient
       inkscape:collect="always"
       xlink:href="#linearGradient1085"
       id="linearGradient1087"
       x1="257.77975"
       y1="37.708317"
       x2="257.77975"
       y2="58.874985"
       gradientUnits="userSpaceOnUse"
       gradientTransform="translate(0,8.5526249)" />
    <linearGradient
       inkscape:collect="always"
       xlink:href="#linearGradient1085"
       id="linearGradient1091"
       gradientUnits="userSpaceOnUse"
       x1="257.77975"
       y1="37.708317"
       x2="257.77975"
       y2="58.874985"
       gradientTransform="translate(0,-306.37312)" />
    <linearGradient
       inkscape:collect="always"
       xlink:href="#linearGradient1085"
       id="linearGradient1103"
       x1="27.594227"
       y1="157.52676"
       x2="51.179413"
       y2="157.52676"
       gradientUnits="userSpaceOnUse"
       gradientTransform="translate(0,2.1381562)" />
    <linearGradient
       inkscape:collect="always"
       xlink:href="#linearGradient1085"
       id="linearGradient1107"
       gradientUnits="userSpaceOnUse"
       x1="26.458332"
       y1="157.52676"
       x2="52.916664"
       y2="157.52676"
       gradientTransform="translate(-508.06681)" />
  </defs>
  <sodipodi:namedview
     id="base"
     pagecolor="#ffffff"
     bordercolor="#666666"
     borderopacity="1.0"
     inkscape:pageopacity="0.0"
     inkscape:pageshadow="2"
     inkscape:zoom="0.35"
     inkscape:cx="1035.0855"
     inkscape:cy="686.59376"
     inkscape:document-units="mm"
     inkscape:current-layer="layer3"
     showgrid="false"
     inkscape:window-width="1360"
     inkscape:window-height="350"
     inkscape:window-x="0"
     inkscape:window-y="380"
     inkscape:window-maximized="0"
     units="px" />
  <metadata
     id="metadata5">
    <rdf:RDF>
      <cc:Work
         rdf:about="">
        <dc:format>image/svg+xml</dc:format>
        <dc:type
           rdf:resource="http://purl.org/dc/dcmitype/StillImage" />
        <dc:title></dc:title>
      </cc:Work>
    </rdf:RDF>
  </metadata>
  <g
     inkscape:label="Layer 1"
     inkscape:groupmode="layer"
     id="layer1"
     transform="translate(0,-11.249984)"
     sodipodi:insensitive="true">
    <path
       style="fill:#fde0ab;fill-opacity:1;fill-rule:evenodd;stroke:none;stroke-width:7;stroke-linecap:butt;stroke-linejoin:miter;stroke-miterlimit:4;stroke-dasharray:none;stroke-opacity:1"
       d="m 1914.2852,8.5722656 c -137.3176,0.2058734 -233.191,1.7936634 -314.709,3.8593754 L 1555.8379,118.04688 1535.8535,14.197266 c -216.7619,6.483943 -374.1137,14.94745 -1102.92967,4.363281 L 425.24414,67.480469 413.32617,18.28125 C 374.57072,17.708124 334.61138,17.094099 292.58984,16.412109 L 274.66211,125.71484 H 1820 V 980 h -114.9961 l -21.9023,82.1367 c 75.165,2.1936 150.3296,4.386 225.4707,6.4356 -33.7234,-253.20996 -13.5617,-549.52721 -1.2071,-839.59964 l -78.4707,-36.87696 79.5352,11.36133 c 2.6798,-65.54429 4.8763,-130.701082 5.8555,-194.8847644 z M 8.5722656,11.427734 C 25.678679,328.18315 31.887189,530.30671 32.421875,668.51367 L 100,667.96289 V 125.71484 H 267.12109 L 239.15039,15.525391 C 166.87081,14.312262 90.783653,12.971924 8.5722656,11.427734 Z M 100,680.24609 32.433594,704.07812 C 31.723688,909.92797 17.35798,960.00354 11.427734,1068.5723 549.8692,1030.1036 1097.2171,1045.0653 1644.7305,1061.0254 L 1698.7461,980 H 100 Z"
       id="path1033"
       transform="matrix(0.26458333,0,0,0.26458333,0,11.249984)"
       inkscape:connector-curvature="0" />
    <rect
       style="opacity:1;vector-effect:none;fill:url(#linearGradient1087);fill-opacity:1;stroke:#000000;stroke-width:0.62694615;stroke-linecap:round;stroke-linejoin:round;stroke-miterlimit:4;stroke-dasharray:none;stroke-dashoffset:0;stroke-opacity:0"
       id="rect1063"
       width="455.08334"
       height="26.458334"
       x="26.458334"
       y="44.169594" />
    <rect
       y="-270.75616"
       x="26.458334"
       height="26.458334"
       width="455.08334"
       id="rect1089"
       style="opacity:1;vector-effect:none;fill:url(#linearGradient1091);fill-opacity:1;stroke:#000000;stroke-width:0.62694615;stroke-linecap:round;stroke-linejoin:round;stroke-miterlimit:4;stroke-dasharray:none;stroke-dashoffset:0;stroke-opacity:0"
       transform="scale(1,-1)" />
    <rect
       style="opacity:1;vector-effect:none;fill:url(#linearGradient1103);fill-opacity:1;stroke:none;stroke-width:0.44184262;stroke-linecap:round;stroke-linejoin:round;stroke-miterlimit:4;stroke-dasharray:none;stroke-dashoffset:0;stroke-opacity:1"
       id="rect1095"
       width="26.458334"
       height="226.02975"
       x="26.458332"
       y="46.650051" />
    <rect
       y="44.511894"
       x="-481.60846"
       height="226.02975"
       width="26.458334"
       id="rect1105"
       style="opacity:1;vector-effect:none;fill:url(#linearGradient1107);fill-opacity:1;stroke:none;stroke-width:0.44184262;stroke-linecap:round;stroke-linejoin:round;stroke-miterlimit:4;stroke-dasharray:none;stroke-dashoffset:0;stroke-opacity:1"
       transform="scale(-1,1)" />
  </g>
  <g
     inkscape:groupmode="layer"
     id="layer4"
     inkscape:label="BG"
     sodipodi:insensitive="true">
    <path
       style="display:inline;opacity:1;vector-effect:none;fill:#24337f;fill-opacity:1;stroke:#fde0ab;stroke-width:7;stroke-linecap:round;stroke-linejoin:round;stroke-miterlimit:4;stroke-dasharray:none;stroke-dashoffset:0;stroke-opacity:0.09137059"
       d="M -484.87305,-370.57812 V 1496.1836 H 2416.2852 V -370.57812 Z M 1914.2852,8.5722656 c -0.9792,64.1836824 -3.1757,129.3404744 -5.8555,194.8847644 l -79.5352,-11.36133 78.4707,36.87696 c -12.3546,290.07243 -32.5163,586.38968 1.2071,839.59964 -75.1411,-2.0496 -150.3057,-4.242 -225.4707,-6.4356 l 26.0761,-97.78514 -64.4472,96.67384 C 1097.2171,1045.0653 549.8692,1030.1036 11.427734,1068.5723 17.35798,960.00354 31.723688,909.92797 32.433594,704.07812 L 135.64844,667.67188 32.421875,668.51367 C 31.887189,530.30671 25.678679,328.18315 8.5722656,11.427734 90.783653,12.971924 166.87081,14.312262 239.15039,15.525391 L 271.70117,143.76172 292.58984,16.412109 c 42.02154,0.68199 81.98088,1.296015 120.73633,1.869141 l 11.91797,49.199219 7.67969,-48.919922 c 728.81597,10.584169 886.16777,2.120662 1102.92967,-4.363281 l 19.9844,103.849614 43.7383,-105.615239 c 81.518,-2.065712 177.3914,-3.653502 314.709,-3.8593754 z"
       id="rect1109"
       inkscape:connector-curvature="0"
       transform="scale(0.26458333)" />
  </g>
  <g
     inkscape:groupmode="layer"
     id="layer3"
     inkscape:label="outline"
     style="display:inline">
    <path
       id="path1053"
       d="m 1914.2852,8.5722656 c -137.3176,0.2058734 -233.191,1.7936634 -314.709,3.8593754 L 1555.8379,118.04688 1535.8535,14.197266 c -216.7619,6.483943 -374.1137,14.94745 -1102.92967,4.363281 L 425.24414,67.480469 413.32617,18.28125 C 374.57072,17.708124 334.61138,17.094099 292.58984,16.412109 L 271.70117,143.76172 239.15039,15.525391 C 166.87081,14.312262 90.783654,12.971924 8.5722656,11.427734 25.678679,328.18315 31.887189,530.30671 32.421875,668.51367 L 135.64844,667.67188 32.433594,704.07812 C 31.723688,909.92797 17.35798,960.00357 11.427734,1068.5723 549.86921,1030.1036 1097.2171,1045.0653 1644.7305,1061.0254 l 64.4472,-96.67384 -26.0761,97.78514 c 75.165,2.1936 150.3296,4.386 225.4707,6.4356 -33.7234,-253.20993 -13.5617,-549.5272 -1.2071,-839.59964 l -78.4707,-36.87696 79.5352,11.36133 c 2.6798,-65.54429 4.8763,-130.701081 5.8555,-194.8847644 z"
       style="fill:none;fill-opacity:1;fill-rule:evenodd;stroke:#703400;stroke-width:7;stroke-linecap:butt;stroke-linejoin:miter;stroke-miterlimit:4;stroke-dasharray:none;stroke-opacity:1"
       inkscape:connector-curvature="0"
       transform="scale(0.26458333)" />
  </g>
</svg>
