<?xml version="1.0" encoding="UTF-8" standalone="no"?>
<!-- Created with Inkscape (http://www.inkscape.org/) -->

<svg
   xmlns:dc="http://purl.org/dc/elements/1.1/"
   xmlns:cc="http://creativecommons.org/ns#"
   xmlns:rdf="http://www.w3.org/1999/02/22-rdf-syntax-ns#"
   xmlns:svg="http://www.w3.org/2000/svg"
   xmlns="http://www.w3.org/2000/svg"
   xmlns:sodipodi="http://sodipodi.sourceforge.net/DTD/sodipodi-0.dtd"
   xmlns:inkscape="http://www.inkscape.org/namespaces/inkscape"
   width="300"
   height="50"
   viewBox="0 0 79.374998 13.229167"
   version="1.1"
   id="svg8"
   inkscape:version="0.92.2 2405546, 2018-03-11"
   sodipodi:docname="over.svg">
  <defs
     id="defs2" />
  <sodipodi:namedview
     id="base"
     pagecolor="#ffffff"
     bordercolor="#666666"
     borderopacity="1.0"
     inkscape:pageopacity="0.0"
     inkscape:pageshadow="2"
     inkscape:zoom="1.4"
     inkscape:cx="200.84073"
     inkscape:cy="-66.850267"
     inkscape:document-units="mm"
     inkscape:current-layer="layer1"
     showgrid="false"
     units="px"
     inkscape:window-width="1360"
     inkscape:window-height="687"
     inkscape:window-x="0"
     inkscape:window-y="46"
     inkscape:window-maximized="0" />
  <metadata
     id="metadata5">
    <rdf:RDF>
      <cc:Work
         rdf:about="">
        <dc:format>image/svg+xml</dc:format>
        <dc:type
           rdf:resource="http://purl.org/dc/dcmitype/StillImage" />
        <dc:title></dc:title>
      </cc:Work>
    </rdf:RDF>
  </metadata>
  <g
     inkscape:label="Layer 1"
     inkscape:groupmode="layer"
     id="layer1"
     transform="translate(0,-283.7708)">
    <path
       style="opacity:1;vector-effect:none;fill:#348700;fill-opacity:1;stroke:none;stroke-width:1.5;stroke-linecap:round;stroke-linejoin:round;stroke-miterlimit:4;stroke-dasharray:none;stroke-dashoffset:0;stroke-opacity:1"
       d="M 4.375 0 C 1.9512514 0 0 1.9512514 0 4.375 L 0 45.625 C 0 48.048749 1.9512514 50 4.375 50 L 295.625 50 C 298.04875 50 300 48.048749 300 45.625 L 300 4.375 C 300 1.9512514 298.04875 0 295.625 0 L 4.375 0 z M 6.9394531 2.5 L 293.06055 2.5 C 295.52044 2.5 297.5 4.4394023 297.5 6.8476562 L 297.5 43.152344 C 297.5 45.560598 295.52044 47.5 293.06055 47.5 L 6.9394531 47.5 C 4.4795649 47.5 2.5 45.560598 2.5 43.152344 L 2.5 6.8476562 C 2.5 4.4394023 4.4795649 2.5 6.9394531 2.5 z "
       transform="matrix(0.26458333,0,0,0.26458333,0,283.7708)"
       id="rect815" />
  </g>
</svg>
