<?xml version="1.0" encoding="UTF-8" standalone="no"?>
<!-- Created with Inkscape (http://www.inkscape.org/) -->

<svg
   xmlns:dc="http://purl.org/dc/elements/1.1/"
   xmlns:cc="http://creativecommons.org/ns#"
   xmlns:rdf="http://www.w3.org/1999/02/22-rdf-syntax-ns#"
   xmlns:svg="http://www.w3.org/2000/svg"
   xmlns="http://www.w3.org/2000/svg"
   xmlns:sodipodi="http://sodipodi.sourceforge.net/DTD/sodipodi-0.dtd"
   xmlns:inkscape="http://www.inkscape.org/namespaces/inkscape"
   width="100"
   height="50"
   viewBox="0 0 26.458333 13.229167"
   version="1.1"
   id="svg8"
   inkscape:version="0.92.2 2405546, 2018-03-11"
   sodipodi:docname="bigShip.svg"
   inkscape:export-filename="/home/syrn/git/Nanahuatzin/Sprites/bigShip.png"
   inkscape:export-xdpi="300"
   inkscape:export-ydpi="300">
  <defs
     id="defs2" />
  <sodipodi:namedview
     id="base"
     pagecolor="#ffffff"
     bordercolor="#666666"
     borderopacity="1.0"
     inkscape:pageopacity="0.0"
     inkscape:pageshadow="2"
     inkscape:zoom="5.6"
     inkscape:cx="13.555448"
     inkscape:cy="40.652575"
     inkscape:document-units="mm"
     inkscape:current-layer="g923"
     showgrid="false"
     units="px"
     height="50in"
     inkscape:window-width="1360"
     inkscape:window-height="687"
     inkscape:window-x="0"
     inkscape:window-y="46"
     inkscape:window-maximized="0" />
  <metadata
     id="metadata5">
    <rdf:RDF>
      <cc:Work
         rdf:about="">
        <dc:format>image/svg+xml</dc:format>
        <dc:type
           rdf:resource="http://purl.org/dc/dcmitype/StillImage" />
        <dc:title></dc:title>
      </cc:Work>
    </rdf:RDF>
  </metadata>
  <g
     inkscape:label="Layer 1"
     inkscape:groupmode="layer"
     id="layer1"
     transform="translate(0,-283.77083)">
    <g
       id="g6506"
       transform="matrix(0,-0.44311284,0.44311284,0,-18.284986,365.17688)">
      <g
         transform="scale(0.26458333)"
         id="use6504">
        <path
           style="fill:#6d4b27;stroke:none"
           inkscape:connector-curvature="0"
           id="path834"
           d="M 677.65,184.9 Q 670.3,177.95 660,178 q -10.3,-0.05 -17.55,6.9 -6.7,6.35 -7.1,15.15 -0.1,0.7 -0.1,1.4 v 3.65 q 0,0.85 0.6,1.45 l 4.15,4.15 v 31.55 q 0.05,2.15 0.25,4.2 0.15,1.65 0.4,3.3 v 0.05 q 2.75,20.85 17,35.2 v 0.05 q 0.6,0.6 1.45,0.85 0.9,0.25 1.8,0 0.9,-0.3 1.45,-0.9 6.55,-6.65 10.7,-14.6 4.8,-9.4 6.35,-20.6 v -0.05 q 0.2,-1.65 0.35,-3.3 0.2,-2.1 0.25,-4.2 V 210.7 l 4.2,-4.15 q 0.55,-0.6 0.55,-1.45 v -3.65 q 0,-0.6 0,-1.2 0,-0.05 0,-0.1 -0.45,-8.9 -7.1,-15.25 M 660,180 q 9.5,-0.05 16.25,6.35 6.1,5.8 6.5,13.9 0,0.6 0,1.2 v 3.65 l -4.75,4.75 v 32.35 q -0.05,2.05 -0.25,4.05 -0.15,1.65 -0.35,3.25 -1.45,10.9 -6.15,19.95 -4,7.75 -10.35,14.15 -0.2,0.25 -0.55,0.35 -0.35,0.1 -0.7,0 -0.35,-0.1 -0.6,-0.35 -13.75,-13.9 -16.45,-34.1 -0.2,-1.6 -0.35,-3.25 -0.2,-2 -0.25,-4.05 v -32.35 l -4.75,-4.75 v -3.65 q 0,-0.6 0.1,-1.2 0.35,-8.1 6.45,-13.9 6.7,-6.4 16.2,-6.35 z" />
        <path
           style="fill:#b47b41;stroke:none"
           inkscape:connector-curvature="0"
           id="path836"
           d="M 676.25,186.35 Q 669.5,179.95 660,180 q -9.5,-0.05 -16.2,6.35 -6.1,5.8 -6.45,13.9 -0.1,0.6 -0.1,1.2 v 3.65 l 4.75,4.75 v 32.35 q 0.05,2.05 0.25,4.05 0.15,1.65 0.35,3.25 2.7,20.2 16.45,34.1 0.25,0.25 0.6,0.35 0.35,0.1 0.7,0 0.35,-0.1 0.55,-0.35 6.35,-6.4 10.35,-14.15 4.7,-9.05 6.15,-19.95 0.2,-1.6 0.35,-3.25 0.2,-2 0.25,-4.05 v -32.35 l 4.75,-4.75 v -3.65 q 0,-0.6 0,-1.2 -0.4,-8.1 -6.5,-13.9 m -3.85,2.6 v -0.05 q 4.85,4.75 5.3,11.35 0,0.6 0,1.2 v 3.3 0.35 H 674 v 4.65 12 6.5 12 1.8 q -0.1,2.15 -0.25,4.2 -0.2,1.65 -0.4,3.25 -1.6,11 -6.65,19.95 -6.2,8.45 -13.35,0 -5.1,-9 -6.7,-19.95 -0.2,-1.6 -0.35,-3.25 -0.2,-2 -0.3,-4.05 v -1.95 -12 -6.5 -12 -4.65 h -3.65 v -0.35 -3.3 q 0,-0.6 0.05,-1.2 0.35,-6.6 5.3,-11.35 5.05,-4.85 12.3,-4.9 h 0.1 q 7.15,0.05 12.3,4.95 z" />
        <path
           style="fill:#a8733b;stroke:none"
           inkscape:connector-curvature="0"
           id="path838"
           d="m 673.35,249.5 q 0.2,-1.6 0.4,-3.25 H 646.3 q 0.15,1.65 0.35,3.25 z" />
        <path
           style="fill:#8e6132;stroke:none"
           inkscape:connector-curvature="0"
           id="path840"
           d="m 666.7,269.45 q 5.05,-8.95 6.65,-19.95 h -26.7 q 1.6,10.95 6.7,19.95 7.15,8.45 13.35,0 m -6.7,-12.5 q 1.35,0 2.3,0.95 1,1 1,2.35 0,1.35 -1,2.3 -0.95,1 -2.3,1 -1.35,0 -2.35,-1 -0.95,-0.95 -0.95,-2.3 0,-1.35 0.95,-2.35 1,-0.95 2.35,-0.95 m 17.7,-52.2 v -3.3 q 0,-0.6 0,-1.2 h -35.3 q -0.05,0.6 -0.05,1.2 v 3.3 z" />
        <path
           style="fill:#95b4b6;stroke:none"
           inkscape:connector-curvature="0"
           id="path842"
           d="m 662.3,257.9 q -0.95,-0.95 -2.3,-0.95 -1.35,0 -2.35,0.95 -0.95,1 -0.95,2.35 0,1.35 0.95,2.3 1,1 2.35,1 1.35,0 2.3,-1 1,-0.95 1,-2.3 0,-1.35 -1,-2.35 m -3.5,1.15 q 0.5,-0.45 1.2,-0.45 0.65,0 1.15,0.45 0.5,0.5 0.5,1.2 0,0.65 -0.5,1.15 -0.5,0.5 -1.15,0.5 -0.7,0 -1.2,-0.5 -0.45,-0.5 -0.45,-1.15 0,-0.7 0.45,-1.2 m 11.8,-30.8 v 12 h 3.4 v -12 h -3.4 m -21.2,12 v -12 H 646 v 12 h 3.4 m 0,-18.5 v -12 H 646 v 12 h 3.4 m 24.6,-12 h -3.4 v 12 h 3.4 z" />
        <path
           style="fill:#7e989a;stroke:none"
           inkscape:connector-curvature="0"
           id="path844"
           d="m 660,258.6 q -0.7,0 -1.2,0.45 -0.45,0.5 -0.45,1.2 0,0.65 0.45,1.15 0.5,0.5 1.2,0.5 0.65,0 1.15,-0.5 0.5,-0.5 0.5,-1.15 0,-0.7 -0.5,-1.2 -0.5,-0.45 -1.15,-0.45 z" />
        <path
           style="fill:#a7cacd;stroke:none"
           inkscape:connector-curvature="0"
           id="path846"
           d="m 667.75,228.25 v 12 h 2.85 v -12 h -2.85 m -18.35,12 h 2.85 v -12 h -2.85 v 12 m 2.85,-18.5 v -12 h -2.85 v 12 h 2.85 m 18.35,0 v -12 h -2.85 v 12 z" />
        <path
           style="fill:#956635;stroke:none"
           inkscape:connector-curvature="0"
           id="path848"
           d="m 677.7,205.1 v -0.35 h -35.35 v 0.35 H 646 v 4.65 h 3.4 2.85 v 12 H 649.4 646 v 6.5 h 3.4 2.85 v 12 H 649.4 646 v 1.95 q 0.1,2.05 0.3,4.05 h 27.45 q 0.15,-2.05 0.25,-4.2 v -1.8 h -3.4 -2.85 v -12 h 2.85 3.4 v -6.5 h -3.4 -2.85 v -12 h 2.85 3.4 v -4.65 h 3.7 m -22.6,12.15 h 9.85 v 9.85 h -9.85 z" />
        <path
           style="fill:#83592e;stroke:none"
           inkscape:connector-curvature="0"
           id="path850"
           d="m 664.95,217.25 h -9.85 v 9.85 h 9.85 z" />
        <path
           style="fill:#a3703a;stroke:none"
           inkscape:connector-curvature="0"
           id="path852"
           d="m 672.4,188.9 v 0.05 q -5.15,-4.9 -12.3,-4.95 H 660 q -7.25,0.05 -12.3,4.9 -4.95,4.75 -5.3,11.35 h 35.3 q -0.45,-6.6 -5.3,-11.35 z" />
      </g>
    </g>
    <g
       id="g6526"
       transform="matrix(0.31680962,0,0,0.31680962,-58.785057,174.26461)">
      <g
         transform="matrix(0.26458333,0,0,0.26458333,0,283.77083)"
         id="use6524">
        <g
           id="g923">
          <path
             d="m 773.96685,323.76723 h 4.83546 q 0.95244,0 1.68509,-0.51285 19.70816,7.25319 31.21068,6.44728 2.63753,0 5.20178,-0.43958 0,0.0733 0.14654,0.14652 0.80591,0.87918 1.97814,0.87918 h 4.32261 q 1.17223,0 2.05141,-0.87918 0.73264,-0.80591 0.73264,-2.0514 v -4.83546 q 2.12468,-4.10282 3.88302,-8.2789 3.5167,-8.20563 5.71464,-16.48452 0.29306,-1.24549 0.65937,-2.41773 1.4653,-6.52055 2.12468,-13.11435 0,-0.29306 0,-0.65939 -0.65938,-6.44728 -2.12468,-12.89455 -0.29306,-1.2455 -0.65937,-2.49099 -3.22365,-12.38172 -9.59766,-24.83669 v -4.83546 q 0,-1.24549 -0.73264,-2.12467 -0.87918,-0.80591 -2.05141,-0.80591 h -4.32261 q -1.17223,0 -1.97814,0.80591 -0.14654,0.14654 -0.21979,0.21979 -2.491,-0.43958 -5.12853,-0.36631 -0.0733,0 -0.14652,0 -11.42927,-0.73265 -31.06416,6.44727 -0.65939,-0.58611 -1.68509,-0.58611 h -4.83546 q -1.17224,0 -1.97814,0.80591 -0.87918,0.87917 -0.87918,2.12467 v 77.80694 q 0,1.2455 0.87918,2.05141 0.8059,0.87917 1.97814,0.87917 m 0,-13.55394 v -9.37786 -37.58471 -9.37786 -10.84315 h 4.83546 v 1.39203 q 20.95365,-7.98584 32.67598,-7.25319 3.80976,-0.14653 7.54625,0.95244 v -1.61183 h 4.32261 v 5.56811 q 3.95628,7.61951 6.66707,15.23903 v 0.0733 q 2.05141,5.78789 3.44344,11.50252 1.53855,6.52055 2.2712,13.04109 -0.73265,6.59381 -2.2712,13.18762 -1.39203,5.7879 -3.44344,11.50253 -2.71079,7.61951 -6.66707,15.23902 v 5.49485 h -4.32261 v -1.53856 q -3.73649,1.02571 -7.54625,0.95244 -11.72233,0.73264 -32.67598,-7.25319 v 1.31876 h -4.83546 z"
             id="path871"
             inkscape:connector-curvature="0"
             style="fill:#465556;stroke:none;stroke-width:1.46529078" />
          <path
             d="m 821.66206,238.9269 q 0.80591,1.53855 1.68509,3.15037 v -5.56811 h -4.32261 v 1.61183 q 1.24549,0.29306 2.63752,0.80591 m -42.85975,4.10281 h -4.83546 v 10.84315 h 4.83546 v -9.45112 -1.39203 m 44.54484,78.83264 q -0.87918,1.53856 -1.68509,3.07711 -1.39203,0.51285 -2.63752,0.87918 v 1.53856 h 4.32261 v -5.49485 m -49.3803,-21.02692 h 4.83546 v -37.58471 h -4.83546 v 37.58471 m 4.83546,9.37786 h -4.83546 v 10.62336 h 4.83546 v -1.31876 z"
             id="path873"
             inkscape:connector-curvature="0"
             style="fill:#956635;stroke:none;stroke-width:1.46529078" />
          <path
             d="m 778.80231,244.42174 v 9.45112 l 42.85975,-14.94596 q -1.39203,-0.51285 -2.63752,-0.80591 -3.73649,-1.09897 -7.54625,-0.95244 -11.72233,-0.73265 -32.67598,7.25319 m 0,56.41369 51.21191,5.7879 q 2.05141,-5.71463 3.44344,-11.50253 1.53855,-6.59381 2.2712,-13.18762 -0.73265,-6.52055 -2.2712,-13.04109 -1.39203,-5.71464 -3.44344,-11.50253 v -0.0733 l -51.21191,5.93443 v 37.58471 m 25.05647,-8.0591 q -0.0733,0 -0.21979,0 -4.39588,0 -7.47299,-3.22364 -3.15038,-3.22364 -3.15038,-7.76604 0,-4.5424 3.15038,-7.76604 3.07711,-3.22364 7.47299,-3.22364 0.14653,0 0.21979,0 3.22364,0.0733 5.42158,3.22364 0.58612,0.87917 1.09897,1.83161 h 1.2455 v 0.0733 l 3.22363,5.86117 -3.22363,5.86115 -0.0733,0.0733 h -1.17223 q -0.51285,0.95244 -1.09897,1.83162 -2.19794,3.07711 -5.42158,3.22363 m 9.59766,-18.02307 q -0.36633,-0.58612 -0.21979,-1.31876 0.21979,-0.65939 0.8059,-1.02571 h 0.0733 q 0.58611,-0.36632 1.24549,-0.21979 0.65939,0.21979 1.0257,0.87917 l 2.85732,5.20178 2.93059,-5.27505 q 0.29305,-0.58611 1.0257,-0.8059 0.65938,-0.14653 1.24549,0.21979 0.65939,0.36632 0.80591,1.02571 0.2198,0.73264 -0.14652,1.31876 l -3.88302,7.0334 3.88302,6.96013 q 0.36632,0.65937 0.21979,1.31876 -0.21979,0.73264 -0.87918,1.09896 -0.58611,0.36633 -1.24549,0.14653 -0.65938,-0.14653 -1.0257,-0.80591 l -2.93059,-5.20178 -2.85732,5.20178 q -0.36631,0.65938 -1.0257,0.80591 -0.65938,0.2198 -1.31876,-0.14653 -0.58611,-0.36632 -0.8059,-1.09896 -0.14654,-0.65939 0.21979,-1.31876 l 3.88302,-6.96013 -3.88302,-7.0334 m -10.25704,-0.29306 q -1.02571,1.0257 -1.02571,2.41772 0,1.39203 1.02571,2.34447 0.87918,1.0257 2.2712,1.0257 1.31876,0 2.2712,-1.0257 0.95244,-0.95244 0.95244,-2.34447 0,-1.39202 -0.95244,-2.41772 -0.95244,-0.95245 -2.2712,-0.95245 -1.39202,0 -2.2712,0.95245 m 2.2712,8.86501 q -1.39202,0 -2.2712,0.95244 -1.02571,1.0257 -1.02571,2.41773 0,1.39202 1.02571,2.34447 0.87918,1.0257 2.2712,1.0257 1.31876,0 2.2712,-1.0257 0.95244,-0.95245 0.95244,-2.34447 0,-1.39203 -0.95244,-2.41773 -0.95244,-0.95244 -2.2712,-0.95244 m -26.66829,26.88808 v 9.3046 q 20.95365,7.98583 32.67598,7.25319 3.80976,0.0733 7.54625,-0.95244 1.24549,-0.36632 2.63752,-0.87918 z"
             id="path875"
             inkscape:connector-curvature="0"
             style="fill:#682727;fill-opacity:1;stroke:none;stroke-width:1.46529078" />
          <path
             d="m 778.80231,253.87286 v 9.37786 l 51.21191,-5.93442 q -2.71079,-7.61952 -6.66707,-15.23903 -0.87918,-1.61182 -1.68509,-3.15037 l -42.85975,14.94596 m 0,46.96257 v 9.37786 l 42.85975,14.72617 q 0.80591,-1.53855 1.68509,-3.07711 3.95628,-7.61951 6.66707,-15.23902 z"
             id="path877"
             inkscape:connector-curvature="0"
             style="fill:#b59494;stroke:none;stroke-width:1.46529078;fill-opacity:1" />
          <path
             d="m 773.96685,253.87286 v 9.37786 h 4.83546 v -9.37786 h -4.83546 m 0,56.34043 h 4.83546 v -9.37786 h -4.83546 z"
             id="path879"
             inkscape:connector-curvature="0"
             style="fill:#af783e;stroke:none;stroke-width:1.46529078" />
          <path
             d="m 813.23665,273.4345 q -0.14654,0.73264 0.21979,1.31876 l 3.88302,7.0334 -3.88302,6.96013 q -0.36633,0.65937 -0.21979,1.31876 0.21979,0.73264 0.8059,1.09896 0.65938,0.36632 1.31876,0.14653 0.65939,-0.14653 1.0257,-0.80591 l 2.85732,-5.20178 2.93059,5.20178 q 0.36632,0.65938 1.0257,0.80591 0.65938,0.21979 1.24549,-0.14653 0.65939,-0.36632 0.87918,-1.09896 0.14653,-0.65939 -0.21979,-1.31876 l -3.88302,-6.96013 3.88302,-7.0334 q 0.36632,-0.58612 0.14652,-1.31876 -0.14652,-0.65939 -0.80591,-1.02571 -0.58611,-0.36632 -1.24549,-0.21979 -0.73265,0.21979 -1.0257,0.8059 l -2.93059,5.27505 -2.85732,-5.20178 q -0.36631,-0.65938 -1.0257,-0.87917 -0.65938,-0.14653 -1.24549,0.21979 h -0.0733 q -0.58611,0.36632 -0.8059,1.02571 m -9.59766,19.34183 q 0.14653,0 0.21979,0 3.22364,-0.14652 5.42158,-3.22363 0.58612,-0.87918 1.09897,-1.83162 h 1.17223 l 0.0733,-0.0733 3.22363,-5.86116 -3.22363,-5.86117 v -0.0733 h -1.2455 q -0.51285,-0.95244 -1.09897,-1.83161 -2.19794,-3.15037 -5.42158,-3.22364 -0.0733,0 -0.21979,0 -4.39588,0 -7.47299,3.22364 -3.15038,3.22364 -3.15038,7.76604 0,4.5424 3.15038,7.76604 3.07711,3.22364 7.47299,3.22364 m -0.43959,-8.49869 q 0.87918,-0.95243 2.2712,-0.95243 1.31876,0 2.2712,0.95243 0.95244,1.02571 0.95244,2.41774 0,1.39202 -0.95244,2.34446 -0.95244,1.0257 -2.2712,1.0257 -1.39202,0 -2.2712,-1.0257 -1.02571,-0.95244 -1.02571,-2.34446 0,-1.39203 1.02571,-2.41774 m -1.02571,-7.39972 q 0,-1.39202 1.02571,-2.41772 0.87918,-0.95245 2.2712,-0.95245 1.31876,0 2.2712,0.95245 0.95244,1.0257 0.95244,2.41772 0,1.39203 -0.95244,2.34446 -0.95244,1.02571 -2.2712,1.02571 -1.39202,0 -2.2712,-1.02571 -1.02571,-0.95243 -1.02571,-2.34446 z"
             id="path881"
             inkscape:connector-curvature="0"
             style="fill:#ff2d2d;fill-opacity:1;stroke:none;stroke-width:1.46529078" />
        </g>
      </g>
    </g>
  </g>
</svg>
