<?xml version="1.0" encoding="UTF-8" standalone="no"?>
<!-- Created with Inkscape (http://www.inkscape.org/) -->

<svg
   xmlns:dc="http://purl.org/dc/elements/1.1/"
   xmlns:cc="http://creativecommons.org/ns#"
   xmlns:rdf="http://www.w3.org/1999/02/22-rdf-syntax-ns#"
   xmlns:svg="http://www.w3.org/2000/svg"
   xmlns="http://www.w3.org/2000/svg"
   xmlns:sodipodi="http://sodipodi.sourceforge.net/DTD/sodipodi-0.dtd"
   xmlns:inkscape="http://www.inkscape.org/namespaces/inkscape"
   width="100"
   height="50"
   viewBox="0 0 26.458333 13.229167"
   version="1.1"
   id="svg7362"
   inkscape:version="0.92.2 2405546, 2018-03-11"
   sodipodi:docname="shooterShip.svg"
   inkscape:export-filename="/home/syrn/git/Nanahuatzin/Sprites/shooterShip.png"
   inkscape:export-xdpi="300"
   inkscape:export-ydpi="300">
  <defs
     id="defs7356" />
  <sodipodi:namedview
     id="base"
     pagecolor="#ffffff"
     bordercolor="#666666"
     borderopacity="1.0"
     inkscape:pageopacity="0.0"
     inkscape:pageshadow="2"
     inkscape:zoom="4"
     inkscape:cx="36.08149"
     inkscape:cy="2.5055909"
     inkscape:document-units="mm"
     inkscape:current-layer="layer1"
     showgrid="false"
     units="px"
     inkscape:window-width="1360"
     inkscape:window-height="687"
     inkscape:window-x="0"
     inkscape:window-y="46"
     inkscape:window-maximized="0" />
  <metadata
     id="metadata7359">
    <rdf:RDF>
      <cc:Work
         rdf:about="">
        <dc:format>image/svg+xml</dc:format>
        <dc:type
           rdf:resource="http://purl.org/dc/dcmitype/StillImage" />
        <dc:title></dc:title>
      </cc:Work>
    </rdf:RDF>
  </metadata>
  <g
     inkscape:label="Layer 1"
     inkscape:groupmode="layer"
     id="layer1"
     transform="translate(0,-283.77082)">
    <g
       id="g6502"
       transform="matrix(0,-0.6679238,0.6679238,0,-197.94089,407.24838)">
      <g
         transform="matrix(0.26458333,0,0,0.26458333,0,283.77082)"
         id="use6500">
        <path
           style="fill:#6d4b27;stroke:none"
           inkscape:connector-curvature="0"
           id="path7926"
           d="M 660.05,48 H 660 q -8.45,-0.05 -14.4,7.1 -5.25,6.3 -5.55,15.15 -0.05,0.6 -0.05,1.2 v 40.75 q 0,0.05 0,0.1 0.05,2 0.25,3.95 0.15,1.65 0.35,3.25 2.7,21.05 17.05,35.5 v 0.05 q 0.6,0.6 1.45,0.85 0.9,0.25 1.8,0 0.9,-0.3 1.45,-0.9 14.35,-14.45 17.05,-35.5 0.2,-1.6 0.35,-3.25 0.2,-1.95 0.25,-3.95 0,-0.05 0,-0.1 V 71.45 q 0,-0.6 0,-1.2 -0.35,-8.85 -5.6,-15.15 -6,-7.15 -14.35,-7.1 m 12.8,8.35 q 4.8,5.8 5.15,13.9 0,0.6 0,1.2 v 40.75 q -0.05,2.05 -0.25,4.05 -0.15,1.65 -0.35,3.25 -2.7,20.2 -16.5,34.1 -0.2,0.25 -0.55,0.35 -0.35,0.1 -0.7,0 -0.35,-0.1 -0.6,-0.35 -13.75,-13.9 -16.45,-34.1 -0.2,-1.6 -0.35,-3.25 -0.2,-2 -0.25,-4.05 V 71.45 q 0,-0.6 0.05,-1.2 0.3,-8.1 5.1,-13.9 5.3,-6.4 12.85,-6.35 7.5,-0.05 12.85,6.35 z" />
        <path
           style="fill:#b47b41;stroke:none"
           inkscape:connector-curvature="0"
           id="path7928"
           d="m 678,70.25 q -0.35,-8.1 -5.15,-13.9 Q 667.5,49.95 660,50 q -7.55,-0.05 -12.85,6.35 -4.8,5.8 -5.1,13.9 -0.05,0.6 -0.05,1.2 v 40.75 q 0.05,2.05 0.25,4.05 0.15,1.65 0.35,3.25 2.7,20.2 16.45,34.1 0.25,0.25 0.6,0.35 0.35,0.1 0.7,0 0.35,-0.1 0.55,-0.35 13.8,-13.9 16.5,-34.1 0.2,-1.6 0.35,-3.25 0.2,-2 0.25,-4.05 V 71.45 q 0,-0.6 0,-1.2 m -8.2,-11.3 V 58.9 q 3.85,4.75 4.2,11.35 0,0.6 0,1.2 v 3.3 5 12 6.5 12 1.8 q -0.1,2.15 -0.25,4.2 -0.2,1.65 -0.4,3.25 -2.45,17.05 -13.35,29.25 -10.9,-12.25 -13.35,-29.25 -0.2,-1.6 -0.35,-3.25 -0.2,-2 -0.3,-4.05 v -1.95 -12 -6.5 -12 -5 -3.3 q 0,-0.6 0.05,-1.2 0.3,-6.6 4.2,-11.35 4,-4.85 9.75,-4.9 h 0.05 q 5.65,0.05 9.75,4.95 z" />
        <path
           style="fill:#95b4b6;stroke:none"
           inkscape:connector-curvature="0"
           id="path7930"
           d="m 649.4,110.25 v -12 H 646 v 12 h 3.4 m 12.9,17.65 q -0.95,-0.95 -2.3,-0.95 -1.35,0 -2.35,0.95 -0.95,1 -0.95,2.35 0,1.35 0.95,2.3 1,1 2.35,1 1.35,0 2.3,-1 1,-0.95 1,-2.3 0,-1.35 -1,-2.35 m -2.3,0.7 q 0.65,0 1.15,0.45 0.5,0.5 0.5,1.2 0,0.65 -0.5,1.15 -0.5,0.5 -1.15,0.5 -0.7,0 -1.2,-0.5 -0.45,-0.5 -0.45,-1.15 0,-0.7 0.45,-1.2 0.5,-0.45 1.2,-0.45 m 10.6,-36.85 h 3.4 v -12 h -3.4 v 12 m 3.4,6.5 h -3.4 v 12 h 3.4 v -12 m -24.6,-6.5 v -12 H 646 v 12 z" />
        <path
           style="fill:#8e6132;stroke:none"
           inkscape:connector-curvature="0"
           id="path7932"
           d="m 660,148.75 q 10.9,-12.2 13.35,-29.25 h -26.7 q 2.45,17 13.35,29.25 m 0,-21.8 q 1.35,0 2.3,0.95 1,1 1,2.35 0,1.35 -1,2.3 -0.95,1 -2.3,1 -1.35,0 -2.35,-1 -0.95,-0.95 -0.95,-2.3 0,-1.35 0.95,-2.35 1,-0.95 2.35,-0.95 m 14,-55.5 q 0,-0.6 0,-1.2 h -27.95 q -0.05,0.6 -0.05,1.2 v 3.3 h 28 z" />
        <path
           style="fill:#7e989a;stroke:none"
           inkscape:connector-curvature="0"
           id="path7934"
           d="m 661.15,129.05 q -0.5,-0.45 -1.15,-0.45 -0.7,0 -1.2,0.45 -0.45,0.5 -0.45,1.2 0,0.65 0.45,1.15 0.5,0.5 1.2,0.5 0.65,0 1.15,-0.5 0.5,-0.5 0.5,-1.15 0,-0.7 -0.5,-1.2 z" />
        <path
           style="fill:#a8733b;stroke:none"
           inkscape:connector-curvature="0"
           id="path7936"
           d="m 673.35,119.5 q 0.2,-1.6 0.4,-3.25 H 646.3 q 0.15,1.65 0.35,3.25 z" />
        <path
           style="fill:#a7cacd;stroke:none"
           inkscape:connector-curvature="0"
           id="path7938"
           d="m 670.6,98.25 h -2.85 v 12 h 2.85 v -12 m -2.85,-18.5 v 12 h 2.85 v -12 h -2.85 m -15.5,18.5 h -2.85 v 12 h 2.85 v -12 m 0,-18.5 h -2.85 v 12 h 2.85 z" />
        <path
           style="fill:#956635;stroke:none"
           inkscape:connector-curvature="0"
           id="path7940"
           d="m 649.4,79.75 h 2.85 v 12 H 649.4 646 v 6.5 h 3.4 2.85 v 12 H 649.4 646 v 1.95 q 0.1,2.05 0.3,4.05 h 27.45 q 0.15,-2.05 0.25,-4.2 v -1.8 h -3.4 -2.85 v -12 h 2.85 3.4 v -6.5 h -3.4 -2.85 v -12 h 2.85 3.4 v -5 h -28 v 5 h 3.4 m 5.7,17.35 v -9.85 h 9.85 v 9.85 z" />
        <path
           style="fill:#83592e;stroke:none"
           inkscape:connector-curvature="0"
           id="path7942"
           d="m 655.1,87.25 v 9.85 h 9.85 v -9.85 z" />
        <path
           style="fill:#a3703a;stroke:none"
           inkscape:connector-curvature="0"
           id="path7944"
           d="m 669.8,58.9 v 0.05 Q 665.7,54.05 660.05,54 H 660 q -5.75,0.05 -9.75,4.9 -3.9,4.75 -4.2,11.35 H 674 q -0.35,-6.6 -4.2,-11.35 z" />
      </g>
    </g>
    <g
       id="g6526"
       transform="matrix(0,-0.6679238,0.6679238,0,-245.79488,421.38611)">
      <g
         transform="matrix(0.26458333,0,0,0.26458333,0,283.77082)"
         id="use6524">
        <path
           style="fill:#465556;stroke:none"
           inkscape:connector-curvature="0"
           id="path7973"
           d="m 711.45,348.95 v 3.3 q 0,0.65 0.35,1.15 -4.95,13.45 -4.4,21.3 0,1.8 0.3,3.55 -0.05,0 -0.1,0.1 -0.6,0.55 -0.6,1.35 v 2.95 q 0,0.8 0.6,1.4 0.55,0.5 1.4,0.5 h 3.3 q 2.8,1.45 5.65,2.65 5.6,2.4 11.25,3.9 0.85,0.2 1.65,0.45 4.45,1 8.95,1.45 0.2,0 0.45,0 4.4,-0.45 8.8,-1.45 0.85,-0.2 1.7,-0.45 8.45,-2.2 16.95,-6.55 h 3.3 q 0.85,0 1.45,-0.5 0.55,-0.6 0.55,-1.4 v -2.95 q 0,-0.8 -0.55,-1.35 -0.1,-0.1 -0.15,-0.15 0.3,-1.7 0.25,-3.5 0,-0.05 0,-0.1 0.5,-7.8 -4.4,-21.2 0.4,-0.45 0.4,-1.15 v -3.3 q 0,-0.8 -0.55,-1.35 -0.6,-0.6 -1.45,-0.6 h -53.1 q -0.85,0 -1.4,0.6 -0.6,0.55 -0.6,1.35 m 9.25,0 h 6.4 25.65 6.4 7.4 v 3.3 h -0.95 q 5.45,14.3 4.95,22.3 0.1,2.6 -0.65,5.15 h 1.1 v 2.95 h -3.8 q -5.2,2.7 -10.4,4.55 h -0.05 q -3.95,1.4 -7.85,2.35 -4.45,1.05 -8.9,1.55 -4.5,-0.5 -9,-1.55 -3.95,-0.95 -7.85,-2.35 -5.2,-1.85 -10.4,-4.55 H 709 v -2.95 h 1.05 q -0.7,-2.55 -0.65,-5.15 -0.5,-8 4.95,-22.3 h -0.9 v -3.3 z" />
        <path
           style="fill:#956635;stroke:none"
           inkscape:connector-curvature="0"
           id="path7975"
           d="m 769.35,381.5 q -1.05,0.55 -2.15,1.15 h 3.8 v -2.95 h -1.1 q -0.2,0.85 -0.55,1.8 m -2.8,-29.25 v -3.3 h -7.4 v 3.3 h 6.45 0.95 m -53.8,30.4 q -1.05,-0.6 -2.1,-1.15 -0.35,-0.95 -0.6,-1.8 H 709 v 2.95 h 3.75 m 14.35,-33.7 v 3.3 h 25.65 v -3.3 H 727.1 m -6.4,3.3 v -3.3 h -7.25 v 3.3 h 0.9 z" />
        <path
           style="fill:#5f7374;stroke:none"
           inkscape:connector-curvature="0"
           id="path7977"
           d="m 765.6,352.25 h -6.45 l 10.2,29.25 q 0.35,-0.95 0.55,-1.8 0.75,-2.55 0.65,-5.15 0.5,-8 -4.95,-22.3 m -38.5,0 -3.95,34.95 q 3.9,1.4 7.85,2.35 4.5,1.05 9,1.55 4.45,-0.5 8.9,-1.55 3.9,-0.95 7.85,-2.35 h 0.05 l -4.05,-34.95 H 727.1 m 5.5,17.1 q 0,-0.05 0,-0.15 0,-3 2.2,-5.1 2.2,-2.15 5.3,-2.15 3.1,0 5.3,2.15 2.2,2.1 2.2,5.1 0,0.1 0,0.15 -0.05,2.2 -2.2,3.7 -0.6,0.4 -1.25,0.75 v 0.85 h -0.05 l -4,2.2 -4,-2.2 -0.05,-0.05 v -0.8 q -0.65,-0.35 -1.25,-0.75 -2.1,-1.5 -2.2,-3.7 m 12.3,6.55 q 0.4,-0.25 0.9,-0.15 0.45,0.15 0.7,0.55 v 0.05 q 0.25,0.4 0.15,0.85 -0.15,0.45 -0.6,0.7 l -3.55,1.95 3.6,2 q 0.4,0.2 0.55,0.7 0.1,0.45 -0.15,0.85 -0.25,0.45 -0.7,0.55 -0.5,0.15 -0.9,-0.1 l -4.8,-2.65 -4.75,2.65 q -0.45,0.25 -0.9,0.15 -0.5,-0.15 -0.75,-0.6 -0.25,-0.4 -0.1,-0.85 0.1,-0.45 0.55,-0.7 l 3.55,-2 -3.55,-1.95 q -0.45,-0.25 -0.55,-0.7 -0.15,-0.45 0.1,-0.9 0.25,-0.4 0.75,-0.55 0.45,-0.1 0.9,0.15 l 4.75,2.65 4.8,-2.65 m 0.2,-7 q -0.7,-0.7 -1.65,-0.7 -0.95,0 -1.6,0.7 -0.7,0.6 -0.7,1.55 0,0.9 0.7,1.55 0.65,0.65 1.6,0.65 0.95,0 1.65,-0.65 0.65,-0.65 0.65,-1.55 0,-0.95 -0.65,-1.55 m -6.05,1.55 q 0,-0.95 -0.65,-1.55 -0.7,-0.7 -1.65,-0.7 -0.95,0 -1.6,0.7 -0.7,0.6 -0.7,1.55 0,0.9 0.7,1.55 0.65,0.65 1.6,0.65 0.95,0 1.65,-0.65 0.65,-0.65 0.65,-1.55 m -18.35,-18.2 h -6.35 q -5.45,14.3 -4.95,22.3 -0.05,2.6 0.65,5.15 0.25,0.85 0.6,1.8 z" />
        <path
           style="fill:#677c7e;stroke:none"
           inkscape:connector-curvature="0"
           id="path7979"
           d="m 759.15,352.25 h -6.4 l 4.05,34.95 q 5.2,-1.85 10.4,-4.55 1.1,-0.6 2.15,-1.15 l -10.2,-29.25 m -32.05,0 h -6.4 l -10.05,29.25 q 1.05,0.55 2.1,1.15 5.2,2.7 10.4,4.55 z" />
        <path
           style="fill:#af783e;stroke:none"
           inkscape:connector-curvature="0"
           id="path7981"
           d="m 759.15,348.95 h -6.4 v 3.3 h 6.4 v -3.3 m -38.45,0 v 3.3 h 6.4 v -3.3 z" />
        <path
           style="fill:#afb5b6;stroke:none"
           inkscape:connector-curvature="0"
           id="path7983"
           d="m 745.8,375.75 q -0.5,-0.1 -0.9,0.15 l -4.8,2.65 -4.75,-2.65 q -0.45,-0.25 -0.9,-0.15 -0.5,0.15 -0.75,0.55 -0.25,0.45 -0.1,0.9 0.1,0.45 0.55,0.7 l 3.55,1.95 -3.55,2 q -0.45,0.25 -0.55,0.7 -0.15,0.45 0.1,0.85 0.25,0.45 0.75,0.6 0.45,0.1 0.9,-0.15 l 4.75,-2.65 4.8,2.65 q 0.4,0.25 0.9,0.1 0.45,-0.1 0.7,-0.55 0.25,-0.4 0.15,-0.85 -0.15,-0.5 -0.55,-0.7 l -3.6,-2 3.55,-1.95 q 0.45,-0.25 0.6,-0.7 0.1,-0.45 -0.15,-0.85 v -0.05 q -0.25,-0.4 -0.7,-0.55 m -13.2,-6.55 q 0,0.1 0,0.15 0.1,2.2 2.2,3.7 0.6,0.4 1.25,0.75 v 0.8 l 0.05,0.05 4,2.2 4,-2.2 h 0.05 v -0.85 q 0.65,-0.35 1.25,-0.75 2.15,-1.5 2.2,-3.7 0,-0.05 0,-0.15 0,-3 -2.2,-5.1 -2.2,-2.15 -5.3,-2.15 -3.1,0 -5.3,2.15 -2.2,2.1 -2.2,5.1 m 5.8,-0.3 q 0.65,0.6 0.65,1.55 0,0.9 -0.65,1.55 -0.7,0.65 -1.65,0.65 -0.95,0 -1.6,-0.65 -0.7,-0.65 -0.7,-1.55 0,-0.95 0.7,-1.55 0.65,-0.7 1.6,-0.7 0.95,0 1.65,0.7 m 5.05,-0.7 q 0.95,0 1.65,0.7 0.65,0.6 0.65,1.55 0,0.9 -0.65,1.55 -0.7,0.65 -1.65,0.65 -0.95,0 -1.6,-0.65 -0.7,-0.65 -0.7,-1.55 0,-0.95 0.7,-1.55 0.65,-0.7 1.6,-0.7 z" />
      </g>
    </g>
    <g
       id="g7282"
       transform="matrix(0.6679238,0,0,0.6679238,-152.1312,87.829632)">
      <g
         transform="matrix(0.26458333,0,0,0.26458333,0,283.77082)"
         id="use7280">
        <g
           id="g8029"
           transform="translate(-5.5,-1.05)">
          <path
             d="m 975.7,70.3 h -1 q -0.3418,0 -0.7,0.1 -0.27031,0.0709 -0.55,0.2 -0.15,0.05 -0.3,0.15 -0.57344,-0.04981 -1.15,-0.1 -1.73594,-0.137305 -3.5,-0.25 -1.88125,-0.35 -3.75,-0.4 h -2.15 q -1.89746,0.07969 -2.9,2 -0.12578,0.280469 -0.25,0.6 -0.5,1.15 -0.45,3.35 v 0.1 q -0.1,2.65 0.6,3.95 1.00078,1.953906 3.1,2 h 2.05 q 1.8625,-0.05 3.7,-0.4 1.775,-0.113281 3.55,-0.25 0.575,-0.01328 1.15,-0.05 0.2,0.1 0.45,0.2 0.15,0.1 0.35,0.15 0.0248,0.007 0.05,0 0.32832,0.1 0.7,0.1 h 1 q 0.75,0 1.45,-0.4 h 0.05 q 0.8,-0.6 1.1,-1.4 V 80 q 1.35,-3.95 0.05,-7.8 Q 978,71.1 977,70.65 976.4,70.3 975.7,70.3 m -1.85,2.3 0.1,-0.05 q 0.025,-0.0416 0.05,-0.1 0.125,-0.166602 0.25,-0.25 0.25,-0.1 0.45,-0.1 h 1 q 0.25,0 0.5,0.15 0.25,0.15 0.35,0.45 1.2,3.3 0,6.65 -0.1,0.25 -0.35,0.45 -0.25,0.15 -0.5,0.15 h -1 q -0.2,0 -0.45,-0.1 -0.125,-0.125 -0.25,-0.3 -0.025,-0.0166 -0.05,-0.05 l -0.1,-0.1 q -0.92207,0.06699 -1.85,0.1 -1.83887,0.166992 -3.7,0.3 -0.58613,0.117187 -1.2,0.2 -1.40078,0.2 -2.85,0.2 H 963 q -0.05,0 -0.1,0 -0.51484,0.01152 -0.9,-0.2 -1.31562,-0.710938 -1.2,-3.95 0,-0.05 0,-0.1 -0.05,-1.8 0.35,-2.7 0.3459,-0.911719 0.95,-1.25 0.38594,-0.2 0.85,-0.2 h 1.3 q 1.44844,0 2.9,0.2 0.59844,0.08262 1.2,0.2 1.84687,0.131836 3.65,0.25 0.93086,0.08184 1.85,0.15 z"
             id="path8018"
             inkscape:connector-curvature="0"
             style="fill:#4e5f5f;stroke:none" />
          <path
             d="m 974.25,72.2 q -0.125,0.0834 -0.25,0.25 -0.025,0.0584 -0.05,0.1 v 6.95 q 0.025,0.0334 0.05,0.05 0.125,0.175 0.25,0.3 0.25,0.1 0.45,0.1 h 1 q 0.25,0 0.5,-0.15 0.25,-0.2 0.35,-0.45 1.2,-3.35 0,-6.65 -0.1,-0.3 -0.35,-0.45 -0.25,-0.15 -0.5,-0.15 h -1 q -0.2,0 -0.45,0.1 z"
             id="path8020"
             inkscape:connector-curvature="0"
             style="fill:#7e989a;stroke:none" />
          <path
             d="m 973.95,72.55 -0.1,0.05 q -0.91914,-0.06816 -1.85,-0.15 -1.80313,-0.118164 -3.65,-0.25 -0.60156,-0.117383 -1.2,-0.2 -1.45156,-0.2 -2.9,-0.2 h -1.3 q -0.46406,0 -0.85,0.2 -0.6041,0.338281 -0.95,1.25 -0.4,0.9 -0.35,2.7 0,0.05 0,0.1 -0.11562,3.239062 1.2,3.95 0.38516,0.211523 0.9,0.2 0.05,0 0.1,0 h 1.25 q 1.44922,0 2.85,-0.2 0.61387,-0.08281 1.2,-0.2 1.86113,-0.133008 3.7,-0.3 0.92793,-0.03301 1.85,-0.1 l 0.1,0.1 z"
             id="path8022"
             inkscape:connector-curvature="0"
             style="fill:#748c8e;stroke:none" />
        </g>
      </g>
    </g>
    <g
       id="g6530"
       transform="matrix(0.6679238,0,0,0.6679238,-116.15821,43.817131)">
      <g
         transform="matrix(0.26458333,0,0,0.26458333,0,283.77082)"
         id="use6528">
        <path
           style="fill:#465556;stroke:none"
           inkscape:connector-curvature="0"
           id="path8052"
           d="m 737.9,313.9 q -0.9,0.85 -0.9,2.1 v 16.1 q 0,1.2 0.9,2.05 v 0.05 q 0.85,0.8 2.1,0.8 h 0.05 q 1.2,0 2.05,-0.8 l 0.05,-0.05 Q 743,333.3 743,332.1 V 316 q 0,-1.25 -0.85,-2.1 H 742.1 Q 741.25,313 740.05,313 H 740 q -1.25,0 -2.1,0.9 m 1.4,1.4 q 0.3,-0.3 0.7,-0.3 0.4,0 0.7,0.3 0.3,0.3 0.3,0.7 v 16.05 q 0,0.4 -0.3,0.7 -0.3,0.3 -0.7,0.3 -0.4,0 -0.7,-0.3 -0.3,-0.3 -0.3,-0.7 V 316 q 0,-0.4 0.3,-0.7 z" />
        <path
           style="fill:#5f7374;stroke:none"
           inkscape:connector-curvature="0"
           id="path8054"
           d="m 740,315 q -0.4,0 -0.7,0.3 -0.3,0.3 -0.3,0.7 v 16.05 q 0,0.4 0.3,0.7 0.3,0.3 0.7,0.3 0.4,0 0.7,-0.3 0.3,-0.3 0.3,-0.7 V 316 q 0,-0.4 -0.3,-0.7 -0.3,-0.3 -0.7,-0.3 z" />
      </g>
    </g>
  </g>
</svg>
